<svg width="512" height="512" viewBox="0 0 512 512" fill="none" xmlns="http://www.w3.org/2000/svg">
<rect width="512" height="512" fill="white"/>
<path d="M100.757 462.761C86.6298 462.761 75.6144 458.069 67.711 448.683C59.9063 439.199 56.004 425.912 56.004 408.82C56.004 392.124 59.9063 379.183 67.711 369.995C75.6144 360.708 86.6298 356.065 100.757 356.065C114.885 356.065 125.851 360.708 133.655 369.995C141.559 379.183 145.51 392.124 145.51 408.82C145.51 425.912 141.559 439.199 133.655 448.683C125.851 458.069 114.885 462.761 100.757 462.761ZM100.757 446.46C108.167 446.46 113.551 443.497 116.91 437.569C120.368 431.543 122.096 421.96 122.096 408.82C122.096 395.977 120.417 386.691 117.058 380.961C113.699 375.231 108.265 372.366 100.757 372.366C93.2489 372.366 87.8153 375.231 84.4564 380.961C81.0974 386.691 79.4179 395.977 79.4179 408.82C79.4179 421.96 81.0974 431.543 84.4564 437.569C87.9141 443.497 93.3477 446.46 100.757 446.46ZM187.402 462.761C177.72 462.761 170.063 461.279 164.432 458.316C158.9 455.352 156.134 451.548 156.134 446.905C156.134 444.139 157.072 441.817 158.949 439.94C160.925 437.964 163.741 436.878 167.396 436.68C169.471 440.632 172.138 443.595 175.398 445.571C178.757 447.547 182.956 448.535 187.994 448.535C196.688 448.535 201.035 445.275 201.035 438.755C201.035 436.087 199.8 434.062 197.33 432.679C194.861 431.296 190.81 429.666 185.179 427.789C179.449 425.912 174.707 424.084 170.953 422.306C167.297 420.527 164.136 417.959 161.469 414.6C158.801 411.142 157.467 406.696 157.467 401.263C157.467 396.619 158.9 392.569 161.765 389.111C164.729 385.555 168.582 382.887 173.324 381.109C178.165 379.232 183.401 378.293 189.032 378.293C196.244 378.293 202.566 379.676 208 382.443C213.434 385.209 217.682 388.914 220.744 393.557C219.46 396.027 217.682 398.2 215.409 400.077C213.236 401.855 211.26 402.745 209.482 402.745C208.494 402.745 207.654 402.596 206.963 402.3C206.271 401.905 205.58 401.312 204.888 400.522C200.442 394.989 195.354 392.223 189.624 392.223C185.87 392.223 182.956 392.964 180.881 394.446C178.905 395.829 177.918 397.953 177.918 400.818C177.918 403.881 179.251 406.202 181.919 407.783C184.685 409.364 188.982 410.994 194.811 412.673C200.344 414.155 204.888 415.736 208.445 417.415C212.1 418.996 215.162 421.416 217.632 424.677C220.201 427.838 221.485 432.037 221.485 437.273C221.485 445.473 218.521 451.795 212.594 456.241C206.765 460.588 198.368 462.761 187.402 462.761ZM271.259 462.761C243.993 462.761 230.359 448.535 230.359 420.083C230.359 407.042 233.866 396.817 240.881 389.408C247.895 381.998 257.577 378.293 269.926 378.293C279.607 378.293 287.56 380.714 293.784 385.555C300.107 390.297 303.812 396.768 304.898 404.967C299.168 408.425 294.426 410.154 290.672 410.154C289.092 410.154 287.758 409.66 286.671 408.672C285.683 407.684 284.843 406.104 284.152 403.93C282.67 399.781 280.842 396.866 278.669 395.187C276.495 393.409 273.581 392.52 269.926 392.52C264.393 392.52 260.096 394.891 257.033 399.633C254.069 404.375 252.588 411.191 252.588 420.083C252.588 429.666 254.069 436.729 257.033 441.274C260.096 445.72 264.838 447.942 271.259 447.942C275.705 447.942 279.212 446.46 281.781 443.497C284.35 440.434 286.276 435.593 287.56 428.974C292.994 428.974 296.896 429.962 299.267 431.938C301.638 433.914 302.824 437.125 302.824 441.57C302.824 445.324 301.342 448.832 298.378 452.092C295.513 455.352 291.66 457.97 286.819 459.946C281.978 461.823 276.792 462.761 271.259 462.761ZM386.425 430.604C386.425 438.705 386.721 444.534 387.314 448.091C388.005 451.647 389.339 454.71 391.315 457.278C389.24 458.76 386.573 459.995 383.313 460.983C380.052 461.872 377.089 462.317 374.421 462.317C371.951 462.317 369.976 461.428 368.494 459.649C367.012 457.871 365.925 455.055 365.234 451.203C362.566 455.352 359.405 458.316 355.749 460.094C352.094 461.872 347.352 462.761 341.523 462.761C334.311 462.761 328.483 460.835 324.037 456.982C319.591 453.03 317.368 447.893 317.368 441.57C317.368 432.679 321.073 426.06 328.483 421.713C335.991 417.267 347.994 414.6 364.493 413.711V406.005C364.493 401.954 363.406 398.941 361.232 396.965C359.158 394.989 355.947 394.001 351.6 394.001C348.439 394.001 345.277 394.644 342.116 395.928C339.053 397.113 335.25 399.237 330.705 402.3C330.211 402.695 329.52 402.893 328.631 402.893C326.852 402.893 324.926 401.707 322.851 399.336C320.876 396.965 319.097 393.853 317.517 390C321.369 386.641 326.754 383.875 333.669 381.702C340.683 379.429 347.599 378.293 354.416 378.293C364.69 378.293 372.594 380.714 378.126 385.555C383.658 390.297 386.425 397.113 386.425 406.005V430.604ZM349.229 448.535C352.193 448.535 354.91 447.498 357.379 445.423C359.948 443.349 362.319 440.138 364.493 435.791V424.825C356.293 425.121 350.069 426.504 345.821 428.974C341.671 431.345 339.597 434.754 339.597 439.199C339.597 442.064 340.486 444.336 342.264 446.016C344.042 447.695 346.364 448.535 349.229 448.535ZM445.457 378.738C450.199 378.738 453.657 379.775 455.83 381.85C458.004 383.826 459.091 387.037 459.091 391.482C459.091 393.162 458.844 394.841 458.35 396.521C457.955 398.101 457.362 399.336 456.571 400.225C455.386 399.534 454.052 399.04 452.57 398.744C451.088 398.447 448.964 398.299 446.198 398.299C439.777 398.299 434.985 400.275 431.824 404.227C428.761 408.178 427.23 414.205 427.23 422.306V461.279H405.298V379.775H427.23V390.593C429.206 386.74 431.774 383.826 434.936 381.85C438.097 379.775 441.604 378.738 445.457 378.738Z" fill="#51A09B"/>
<g opacity="0.5">
<path d="M178.036 279.607H174.055V308.536H178.036V279.607Z" fill="#4D4D4D"/>
<path d="M185.208 283.221H181.226V304.917H185.208V283.221Z" fill="#4D4D4D"/>
<path d="M192.38 279.607H188.398V308.536H192.38V279.607Z" fill="#4D4D4D"/>
<path d="M199.551 266.284H195.57V320.968H199.551V266.284Z" fill="#4D4D4D"/>
<path d="M206.726 274.089H202.744V314.053H206.726V274.089Z" fill="#4D4D4D"/>
<path d="M271.541 266.284H267.56V320.968H271.541V266.284Z" fill="#4D4D4D"/>
<path d="M278.713 276.941H274.732V311.198H278.713V276.941Z" fill="#4D4D4D"/>
<path d="M285.387 286.077H281.405V302.065H285.387V286.077Z" fill="#4D4D4D"/>
<path d="M291.845 281.319H287.864V306.82H291.845V281.319Z" fill="#4D4D4D"/>
<path d="M298.446 267.879H294.465V320.264H298.446V267.879Z" fill="#4D4D4D"/>
<path d="M305.25 283.221H301.268V304.917H305.25V283.221Z" fill="#4D4D4D"/>
<path d="M312.297 276.941H308.316V311.198H312.297V276.941Z" fill="#4D4D4D"/>
<path d="M318.859 266.284H314.878V321.855H318.859V266.284Z" fill="#4D4D4D"/>
<path d="M325.31 276.941H321.329V309.486H325.31V276.941Z" fill="#4D4D4D"/>
<path d="M332.041 284.893H328.059V301.534H332.041V284.893Z" fill="#4D4D4D"/>
<path d="M338.546 288.295H334.564V298.131H338.546V288.295Z" fill="#4D4D4D"/>
<path d="M171.183 286.077H167.202V300.35H171.183V286.077Z" fill="#4D4D4D"/>
<path d="M242.175 266.284H238.193V320.968H242.175V266.284Z" fill="#4D4D4D"/>
<path d="M249.347 274.089H245.365V314.053H249.347V274.089Z" fill="#4D4D4D"/>
<path d="M213.897 283.221H209.916V304.917H213.897V283.221Z" fill="#4D4D4D"/>
<path d="M221.069 286.077H217.088V302.065H221.069V286.077Z" fill="#4D4D4D"/>
<path d="M257.104 283.221H253.123V304.917H257.104V283.221Z" fill="#4D4D4D"/>
<path d="M264.276 276.941H260.295V311.198H264.276V276.941Z" fill="#4D4D4D"/>
<path d="M228.241 281.319H224.26V306.82H228.241V281.319Z" fill="#4D4D4D"/>
<path d="M235.413 276.941H231.431V311.198H235.413V276.941Z" fill="#4D4D4D"/>
</g>
<path d="M156.383 286.365C152.706 290.042 146.719 290.061 143.287 286.155C126.394 266.927 114.818 243.544 109.803 218.333C104.174 190.036 107.063 160.705 118.104 134.05C129.145 107.395 147.842 84.613 171.831 68.5842C195.82 52.5554 224.023 44 252.874 44C281.725 44 309.928 52.5554 333.917 68.5842C357.906 84.613 376.603 107.395 387.644 134.05C398.685 160.705 401.573 190.036 395.945 218.333C390.93 243.544 379.354 266.927 362.461 286.155C359.029 290.061 353.042 290.042 349.365 286.365C345.688 282.688 345.718 276.749 349.113 272.81C363.393 256.24 373.189 236.217 377.477 214.659C382.379 190.015 379.863 164.47 370.248 141.256C360.632 118.042 344.348 98.2001 323.456 84.2403C302.564 70.2804 278.001 62.8294 252.874 62.8294C227.747 62.8294 203.184 70.2804 182.292 84.2403C161.399 98.2001 145.116 118.042 135.5 141.256C125.884 164.47 123.368 190.015 128.271 214.659C132.559 236.217 142.355 256.24 156.635 272.81C160.03 276.749 160.059 282.688 156.383 286.365Z" fill="url(#paint0_linear_1248_352)"/>
<g clip-path="url(#clip0_1248_352)">
<path d="M234.47 179.349C238.152 179.349 241.584 179.349 245.017 179.349C245.578 179.349 246.215 179.506 246.685 179.301C247.294 179.033 247.773 178.474 248.31 178.044C247.764 177.628 247.227 176.868 246.661 176.849C243.502 176.729 240.333 176.787 237.164 176.787C236.339 176.787 235.515 176.787 234.57 176.787C234.57 174.435 234.57 172.304 234.57 169.895C238.228 169.895 241.795 169.923 245.357 169.876C246.465 169.861 248.171 170.334 248.214 168.633C248.258 166.841 246.527 167.371 245.434 167.357C241.858 167.309 238.286 167.338 234.585 167.338C234.585 164.981 234.585 162.84 234.585 160.383C238.142 160.383 241.704 160.422 245.261 160.359C246.407 160.34 248.282 160.947 248.224 159.059C248.171 157.238 246.311 157.865 245.161 157.845C241.666 157.783 238.166 157.822 234.575 157.822C234.575 155.441 234.575 153.305 234.575 150.896C238.046 150.896 241.402 150.896 244.758 150.896C245.391 150.896 246.086 151.035 246.642 150.829C247.26 150.595 247.759 150.036 248.31 149.62C247.764 149.199 247.232 148.434 246.666 148.411C243.646 148.282 240.621 148.339 237.596 148.334C236.833 148.334 236.071 148.334 235.309 148.334C235.812 140.319 244.983 132.643 254.567 132.026C264.491 131.391 274.227 138.636 276.073 148.334C272.895 148.334 269.769 148.329 266.643 148.334C265.871 148.334 265.051 148.21 264.342 148.43C263.791 148.602 263.378 149.218 262.908 149.639C263.393 150.05 263.853 150.762 264.375 150.815C266.049 150.977 267.746 150.901 269.433 150.906C271.749 150.91 274.06 150.906 276.572 150.906C276.572 153.228 276.572 155.408 276.572 157.826C273.249 157.826 269.961 157.826 266.672 157.826C266.111 157.826 265.488 157.673 264.999 157.86C264.251 158.142 263.594 158.658 262.899 159.079C263.575 159.513 264.232 160.297 264.927 160.326C268.086 160.465 271.255 160.388 274.419 160.388C275.11 160.388 275.795 160.388 276.624 160.388C276.624 162.711 276.624 164.847 276.624 167.338C273.293 167.338 269.951 167.338 266.605 167.338C265.9 167.338 265.138 167.166 264.51 167.39C263.906 167.605 263.445 168.222 262.923 168.666C263.421 169.063 263.891 169.756 264.419 169.804C266.092 169.962 267.789 169.89 269.476 169.895C271.792 169.899 274.112 169.895 276.596 169.895C276.596 172.165 276.596 174.301 276.596 176.792C273.681 176.792 270.689 176.792 267.693 176.792C266.638 176.792 265.555 176.648 264.538 176.859C263.939 176.983 263.45 177.657 262.908 178.082C263.455 178.503 263.987 179.272 264.548 179.291C267.779 179.411 271.02 179.353 274.256 179.358C275.014 179.358 275.771 179.358 276.735 179.358C276.735 184.664 276.821 189.763 276.706 194.858C276.62 198.62 276.783 202.501 275.934 206.114C274.088 213.972 268.911 219.138 261.101 221.241C253.378 223.325 246.431 221.433 240.702 215.836C236.56 211.792 234.441 206.774 234.451 200.928C234.479 193.84 234.47 186.762 234.47 179.349Z" fill="#51A09B"/>
<path d="M243.454 236.507C245.88 237.344 248.421 237.855 250.899 238.515C250.899 247.324 250.899 264.692 250.899 273.396H260.305C260.305 264.64 260.305 247.252 260.305 238.357C261.48 238.128 262.458 237.984 263.412 237.745C278.264 234.008 287.91 224.922 291.903 210.076C293.869 202.768 292.9 195.293 293.049 187.885C293.107 184.936 291.237 183.048 288.648 183.038C286.007 183.029 284.29 184.821 284.233 187.837C284.17 190.987 284.194 194.141 284.271 197.296C284.458 204.981 283.159 212.194 278.302 218.498C271.173 227.756 258.944 231.866 247.778 228.597C236.287 225.232 228.017 215.253 227.259 203.514C226.953 198.763 227.135 193.984 227.044 189.214C227.02 188.033 227.015 186.79 226.646 185.696C225.994 183.775 223.947 182.771 221.871 183.081C219.785 183.397 218.237 185.146 218.198 187.56C218.122 192.187 218.131 196.818 218.179 201.445C218.337 217.38 228.367 231.317 243.454 236.507Z" fill="#51A09B"/>
</g>
<defs>
<linearGradient id="paint0_linear_1248_352" x1="252.874" y1="44" x2="252.874" y2="335.748" gradientUnits="userSpaceOnUse">
<stop stop-color="#51A09B"/>
<stop offset="0.695096" stop-color="#1D3A38"/>
</linearGradient>
<clipPath id="clip0_1248_352">
<rect width="87.9874" height="106.511" fill="white" transform="translate(213.511 131.987)"/>
</clipPath>
</defs>
</svg>
