<svg width="174" height="64" viewBox="0 0 174 64" fill="none" xmlns="http://www.w3.org/2000/svg">
<g clip-path="url(#clip0_9439_3383)">
<path d="M0.790734 60.226C0.32948 60.226 0.296533 59.8957 0.691894 59.235C0.889574 58.9047 1.38378 58.211 2.1745 57.154C2.96522 56.097 4.18425 55.5684 5.83159 55.5684C6.35873 55.5684 6.88588 55.6015 7.41303 55.6675C8.00607 55.7336 8.63206 55.7666 9.29099 55.7666C10.543 55.7666 11.3666 55.6345 11.762 55.3702C12.1574 55.0399 12.6845 54.4784 13.3434 53.6856C13.4752 53.4874 13.8706 52.6286 14.5295 51.1091C15.2544 49.5896 16.1439 47.6077 17.1982 45.1633C18.2525 42.7189 19.4056 40.0433 20.6576 37.1364C21.9096 34.2296 23.1286 31.3228 24.3147 28.4159C25.5667 25.5091 26.7198 22.8004 27.7741 20.29C28.8943 17.7135 29.7839 15.5994 30.4428 13.9478C29.5203 13.6175 28.2683 13.2541 26.6869 12.8577C25.1054 12.4613 23.3922 12.131 21.5472 11.8668C19.7681 11.5364 18.0548 11.3713 16.4075 11.3713C15.5509 11.3713 14.7272 11.4373 13.9365 11.5695C13.2117 11.6355 12.5857 11.8007 12.0585 12.065C7.64366 14.113 5.43623 17.1189 5.43623 21.0828C5.43623 22.5362 5.73275 24.1217 6.32579 25.8394C6.91883 27.5571 7.64366 29.2087 8.50027 30.7942C9.35689 32.3137 10.3123 33.8662 11.3666 35.4518C11.4984 35.7161 11.4655 35.9142 11.2678 36.0464C11.0701 36.1785 10.9054 36.1124 10.7736 35.8482C9.7193 34.2626 8.59911 32.7101 7.41303 31.1906C6.22695 29.6051 5.2056 27.9865 4.34898 26.3349C3.55826 24.6172 3.1629 22.8004 3.1629 20.8846C3.1629 20.5542 3.1629 20.2239 3.1629 19.8936C3.22879 19.4972 3.29469 19.1008 3.36058 18.7044C4.08541 14.8066 5.6998 12.0319 8.20375 10.3803C10.7736 8.72869 13.9694 7.80379 17.7913 7.6056C19.0432 7.53953 20.5588 7.63863 22.3379 7.90289C24.1829 8.16715 25.995 8.49747 27.7741 8.89386C29.5532 9.29024 30.9699 9.68663 32.0242 10.083C33.3421 7.17618 34.9236 4.89695 36.7686 3.24534C38.6795 1.52766 41.0517 0.668823 43.8851 0.668823C44.3463 0.668823 44.8405 0.767919 45.3677 0.966109C45.8948 1.16431 46.2572 1.4616 46.4549 1.85799C46.5208 1.92405 46.5538 2.02315 46.5538 2.15528C46.5538 2.41953 46.389 2.5847 46.0596 2.65076C45.796 2.71682 45.5983 2.61773 45.4665 2.35346C45.4665 2.2874 45.3018 2.18831 44.9723 2.05618C44.7087 1.92405 44.3463 1.85799 43.8851 1.85799C42.2377 1.85799 40.821 2.35347 39.6349 3.34444C38.4489 4.26934 37.4605 5.4585 36.6697 6.91192C35.9449 8.29928 35.3189 9.68663 34.7918 11.074C37.6911 12.065 40.5575 13.4523 43.3909 15.2361C46.2243 16.9537 48.8271 19.0017 51.1993 21.38C53.5714 23.6923 55.4494 26.3019 56.8331 29.2087C58.2828 32.0495 59.0076 35.1215 59.0076 38.4247C59.0076 41.3315 58.151 44.0732 56.4378 46.6497C54.7246 49.1602 52.3194 51.3733 49.2224 53.2892C46.1913 55.2051 42.666 56.7246 38.6465 57.8477C34.627 58.9047 30.311 59.4662 25.6985 59.5323C22.1402 59.5984 18.582 59.4993 15.0237 59.235C11.4655 59.0368 8.00607 58.9047 4.6455 58.8386C2.86638 58.8386 1.64735 59.268 0.988414 60.1269C0.922521 60.193 0.856628 60.226 0.790734 60.226ZM26.588 57.7486C32.1231 57.6825 36.9992 56.8567 41.2164 55.2711C45.4336 53.6195 48.7282 51.4394 51.1004 48.7308C53.5385 45.956 54.7575 42.818 54.7575 39.3166C54.7575 36.674 54.0986 34.0644 52.7807 31.4879C51.5287 28.8453 49.8484 26.401 47.7398 24.1548C45.6313 21.8425 43.325 19.8606 40.821 18.209C38.3171 16.5573 35.8461 15.4012 33.408 14.7406C30.5746 21.4791 28.1365 27.1607 26.0938 31.7852C24.117 36.4097 22.4697 40.2084 21.1518 43.1813C19.8998 46.1542 18.8785 48.5326 18.0878 50.3163C17.2971 52.034 16.6711 53.3553 16.2098 54.2802C15.7486 55.2051 15.3532 55.9318 15.0237 56.4603C15.5509 56.5264 16.4404 56.6915 17.6924 56.9558C19.0103 57.154 20.4599 57.3522 22.0414 57.5504C23.6228 57.6825 25.1384 57.7486 26.588 57.7486ZM67.8492 60.4242C67.5197 60.4242 67.4868 60.1269 67.7504 59.5323C68.0139 59.0038 68.3763 58.244 68.8376 57.2531C68.9694 56.9888 69.233 56.6585 69.6283 56.2621C70.0237 55.7997 70.2543 55.4033 70.3202 55.073C71.045 53.025 71.704 50.7457 72.297 48.2353C72.89 45.7248 73.3184 43.2804 73.5819 40.9021C73.5819 40.7039 73.5819 40.5388 73.5819 40.4066C73.6478 40.2084 73.6808 40.0433 73.6808 39.9111C73.6808 38.5899 73.2854 37.9292 72.4947 37.9292C71.704 37.9292 70.6826 38.4908 69.4306 39.6139C68.1787 40.737 67.1573 41.7279 66.3666 42.5868L62.8083 47.2443C62.8083 47.2443 62.7754 47.2773 62.7095 47.3434C62.7095 47.3434 62.6766 47.3434 62.6107 47.3434C62.2153 47.3434 62.1165 47.0791 62.3141 46.5506L65.0817 42.6859C66.2019 41.1003 67.3221 39.5148 68.4422 37.9292C69.6283 36.2776 70.8473 35.0224 72.0993 34.1635C72.6924 33.7671 73.3184 33.4368 73.9773 33.1726C74.7021 32.8422 75.3611 32.6771 75.9541 32.6771C76.6789 32.6771 77.3049 32.9413 77.8321 33.4699C78.3592 33.9984 78.6228 34.9893 78.6228 36.4428C78.6228 37.4998 78.4251 38.8871 78.0297 40.6048C77.6344 42.4546 76.9754 44.4366 76.0529 46.5506C75.1963 48.5986 74.3068 50.5475 73.3842 52.3973C72.5276 54.1811 71.8028 55.6015 71.2098 56.6585C73.1866 54.6766 74.9986 52.8598 76.646 51.2082C78.2933 49.5566 79.9407 47.905 81.588 46.2533C83.2353 44.5357 85.0145 42.6198 86.9254 40.5057C87.7161 39.6469 88.5068 39.2175 89.2975 39.2175C89.8247 39.2175 90.0882 39.4487 90.0882 39.9111C90.0882 40.3736 89.8247 40.8691 89.2975 41.3976L89.1987 41.4967C89.3964 43.9411 89.8576 46.1542 90.5825 48.1362C91.3073 50.1181 92.1639 51.7367 93.1523 52.9919C94.602 54.8417 96.0516 55.7666 97.5013 55.7666C98.8191 55.7666 100.005 55.139 101.06 53.8838C102.114 52.6286 102.937 51.043 103.531 49.1271C104.19 47.2113 104.519 45.2293 104.519 43.1813C104.519 41.6619 104.289 40.2084 103.828 38.8211C103.432 37.4337 102.773 36.2115 101.85 35.1545C101.06 34.2957 100.335 33.602 99.6758 33.0735C99.0168 32.545 98.3249 32.2807 97.6001 32.2807C97.4683 32.2807 97.3036 32.3137 97.1059 32.3798C96.9741 32.3798 96.8094 32.4128 96.6117 32.4789C96.2822 32.4789 96.0187 32.3798 95.821 32.1816C95.6233 31.8513 95.5245 31.4549 95.5245 30.9924C95.5245 30.4639 95.7221 29.9684 96.1175 29.506C96.6447 28.9775 97.2706 28.7132 97.9955 28.7132C99.0498 28.7132 100.17 29.3408 101.356 30.596C102.872 32.2477 103.959 34.2626 104.618 36.641C105.277 38.9532 105.607 41.3646 105.607 43.875C105.607 46.5837 105.244 49.2262 104.519 51.8028C103.795 54.3132 102.806 56.3612 101.554 57.9468C100.302 59.5323 98.8191 60.3251 97.1059 60.3251C95.4586 60.3251 93.7124 59.4002 91.8674 57.5504C90.3518 55.9648 89.034 53.9499 87.9138 51.5055C86.8595 48.995 86.4641 46.3194 86.7277 43.4786C86.7277 43.1483 86.7936 42.785 86.9254 42.3886C84.3555 44.5687 81.9504 46.881 79.71 49.3253C77.5355 51.7697 75.4928 54.3462 73.5819 57.0549C73.3184 57.3852 73.0877 57.6825 72.8901 57.9468C72.6924 58.211 72.4617 58.4092 72.1982 58.5413C69.6942 59.7966 68.2446 60.4242 67.8492 60.4242ZM160.163 63.0998C159.57 63.0998 159.01 62.7364 158.483 62.0097C158.022 61.283 157.725 60.4242 157.594 59.4332C157.528 58.9047 157.462 58.3762 157.396 57.8477C157.396 57.2531 157.396 56.6585 157.396 56.0639C157.396 55.2051 157.429 54.3132 157.495 53.3883C157.626 52.4634 157.824 51.4724 158.088 50.4154C156.309 47.7728 154.497 45.0311 152.652 42.1904C150.872 39.2835 148.994 36.5419 147.018 33.9653C145.041 31.3888 142.899 29.1757 140.593 27.3259C140.329 27.1277 140.099 27.1277 139.901 27.3259C139.769 27.524 139.703 27.6231 139.703 27.6231C139.308 28.6141 138.715 30.1336 137.924 32.1816C137.2 34.1635 136.277 36.4428 135.157 39.0193C134.103 41.5297 132.949 44.1062 131.697 46.7488C130.445 49.3253 129.095 51.7367 127.645 53.9829C126.261 56.2291 124.877 58.0789 123.494 59.5323C121.517 61.5142 119.276 62.5052 116.773 62.5052C115.191 62.5052 113.643 62.0428 112.127 61.1179C110.677 60.193 109.425 58.9047 108.371 57.2531C107.383 55.6015 106.658 53.7847 106.197 51.8028C105.801 49.8208 105.538 48.1031 105.406 46.6497C105.472 46.1212 105.735 45.923 106.197 46.0551C106.526 47.6407 106.889 49.0611 107.284 50.3163C107.679 51.5715 108.404 52.7937 109.458 53.9829C111.567 56.3612 114.005 57.5504 116.773 57.5504C119.079 57.5504 121.286 56.6915 123.395 54.9739C125.108 53.5865 126.591 51.8358 127.843 49.7217C129.161 47.6077 130.347 45.5266 131.401 43.4786C131.928 42.2895 132.587 40.7039 133.378 38.722C134.234 36.7401 135.025 34.7581 135.75 32.7762C136.475 30.7282 137.002 29.1096 137.331 27.9204C137.463 27.6562 137.529 27.425 137.529 27.2268C137.529 26.9625 137.529 26.6982 137.529 26.434C137.529 25.2448 137.232 24.2539 136.639 23.4611C135.322 22.0077 133.806 20.4551 132.093 18.8035C130.445 17.1519 128.666 15.6655 126.755 14.3442C124.844 12.9568 122.868 12.065 120.825 11.6686C120.561 11.6025 120.265 11.5695 119.935 11.5695C119.606 11.5034 119.276 11.4704 118.947 11.4704C117.234 11.4704 115.751 12.131 114.499 13.4523C113.313 14.7075 112.72 16.8877 112.72 19.9927C112.72 21.2479 112.984 22.5362 113.511 23.8575C114.104 25.1788 114.73 26.5 115.389 27.8213C116.114 29.0766 116.641 30.2657 116.97 31.3888C117.168 32.1816 117.267 32.9083 117.267 33.569C117.267 35.617 116.575 37.2355 115.191 38.4247C113.873 39.6139 112.522 40.2084 111.139 40.2084C110.282 40.2084 109.557 40.0102 108.964 39.6139C108.701 39.4157 108.635 39.2175 108.766 39.0193C108.898 38.8211 109.096 38.8211 109.36 39.0193C109.953 39.3496 110.644 39.2505 111.435 38.722C112.226 38.1935 112.885 37.3346 113.412 36.1455C114.005 34.8902 114.302 33.4699 114.302 31.8843C114.302 30.8933 114.17 29.9684 113.906 29.1096C113.643 28.1847 113.28 27.2928 112.819 26.434C112.358 25.5091 111.962 24.5842 111.633 23.6593C110.974 21.7434 110.644 19.8936 110.644 18.1099C110.644 15.0048 111.6 12.5274 113.511 10.6776C115.488 8.82779 117.926 7.90289 120.825 7.90289C122.999 7.90289 125.273 8.59657 127.645 9.98392C130.017 11.3713 132.258 13.0229 134.366 14.9388C136.541 16.7886 138.353 18.4071 139.802 19.7945C140 19.1339 140.099 18.6714 140.099 18.4071C140.165 18.1429 140.231 17.8126 140.297 17.4162C140.428 17.0198 140.626 16.3261 140.89 15.3351C141.219 14.2781 141.713 12.6595 142.372 10.4794C142.636 9.42237 143.13 8.89386 143.855 8.89386C144.184 8.89386 144.448 9.09205 144.645 9.48844C144.909 9.81876 144.975 10.3473 144.843 11.074C144.58 12.131 144.184 13.5514 143.657 15.3351C143.196 17.1189 142.537 19.1339 141.68 21.38C145.568 25.476 148.731 29.3078 151.169 32.8753C153.673 36.3767 155.551 39.2505 156.803 41.4967C158.055 43.6768 158.78 44.899 158.977 45.1633C159.175 44.1723 159.57 42.4877 160.163 40.1093C160.822 37.731 161.547 34.9893 162.338 31.8843C163.194 28.7793 164.084 25.6412 165.007 22.4701C165.995 19.233 166.917 16.2931 167.774 13.6505V13.4523C167.774 13.188 167.675 12.8908 167.478 12.5604C167.28 12.2301 167.214 11.9659 167.28 11.7677C167.741 10.2482 168.301 8.92689 168.96 7.80379C169.685 6.61463 170.344 5.4585 170.937 4.3354C171.266 3.87295 171.695 3.64173 172.222 3.64173C173.21 3.64173 173.803 4.07115 174.001 4.92999C173.342 6.18521 172.485 8.16715 171.431 10.8758C170.377 13.5844 169.257 16.6895 168.071 20.1909C166.95 23.6262 165.863 27.1277 164.809 30.6951C163.755 34.1966 162.865 37.4337 162.14 40.4066C161.415 43.3795 160.987 45.6588 160.855 47.2443C161.382 48.3013 161.877 49.6557 162.338 51.3073C162.865 52.9589 163.129 54.6766 163.129 56.4603C163.129 58.178 162.865 59.6975 162.338 61.0188C161.811 62.4061 161.086 63.0998 160.163 63.0998Z" fill="#2FBC6B"/>
</g>
<defs>
<clipPath id="clip0_9439_3383">
<rect width="174" height="64" fill="white"/>
</clipPath>
</defs>
</svg>
