<svg width="220" height="96" viewBox="0 0 220 96" fill="none" xmlns="http://www.w3.org/2000/svg">
<path d="M2.6936 47.9307V23.3421H6.57948V19.5524H20.0034V23.3421H23.9335V36.8702H20.0034V40.6158H8.30163V47.9307H2.6936ZM8.30163 34.6229H18.2813V25.5453H8.30163V34.6229ZM33.1862 40.6158V36.8702H29.3004V23.3421H33.1862V19.5524H46.6102V23.3421H50.5402V29.2909H44.888V25.5453H34.9084V27.0436H42.7243V33.0806H34.9084V34.6229H44.888V30.7891H50.5402V36.8261H46.6102V40.6158H33.1862ZM55.9071 40.6158V23.3421H59.793V19.5524H73.2169V23.3421H77.147V29.2909H71.4948V25.5453H61.5151V40.6158H55.9071ZM82.5142 40.6158V15.8069H86.4001V12.0172H99.824V15.8069H103.754V21.7998H98.1018V18.0542H88.1222V23.3421H95.9381V29.2909H88.1222V40.6158H82.5142ZM108.608 40.6158V36.8702H104.722V23.3421H108.608V19.5524H122.032V23.3421H125.962V29.2909H120.31V25.5453H110.33V27.0436H118.146V33.0806H110.33V34.6229H120.31V30.7891H125.962V36.8261H122.032V40.6158H108.608ZM135.215 40.6158V36.8702H131.329V23.3421H135.215V19.5524H148.639V23.3421H152.569V29.2909H146.917V25.5453H136.937V34.6229H146.917V30.8332H152.569V36.8702H148.639V40.6158H135.215ZM163.508 40.6158V36.8702H159.622V25.5453H155.736V19.5524H159.622V12.0172H165.23V19.5524H176.976V25.5453H165.23V34.6229H175.254V30.8332H180.906V36.8702H176.976V40.6158H163.508ZM185.448 40.6158V12.0172H191.056V40.6158H185.448ZM199.467 48.151V44.4054H195.582V38.4125H201.19V42.1581H211.213V36.8702H199.467V33.0806H195.582V19.5524H201.19V30.8332H211.213V19.5524H216.821V44.4054H212.936V48.151H199.467Z" fill="#F45050"/>
<path d="M2.6936 48.0692V72.6578H6.57948V76.4474H20.0034V72.6578H23.9335V59.1297H20.0034V55.3841H8.30163V48.0692H2.6936ZM8.30163 61.377H18.2813V70.4545H8.30163V61.377Z" fill="#F45050"/>
<path d="M29.3005 55.384V76.4474H34.9086V55.384H29.3005ZM29.3005 77.9456V83.9826H34.9086V77.9456H29.3005ZM40.2968 55.384V61.3769H44.1827V65.1666H48.0686V66.7089H44.1827V70.4545H40.2968V76.4474H45.9049V72.6577H49.7907V68.9562H51.9986V72.6577H55.8845V76.4474H61.5367V70.4545H57.6067V66.7089H53.7208V65.1666H57.6067V61.3769H61.5367V55.384H55.8845V59.1296H51.9986V62.9192H49.7907V59.1296H45.9049V55.384H40.2968ZM68.5902 55.384V59.1296H64.7043V72.6577H68.5902V76.4474H82.0144V72.6577H85.9445V66.7089H80.2923V70.4545H70.3123V68.9562H78.1282V62.9192H70.3123V61.3769H80.2923V65.2107H85.9445V59.1737H82.0144V55.384H68.5902ZM91.3112 55.384V83.9826H96.9192V55.384H91.3112Z" fill="#B31E1E"/>
</svg>
